Coordinates
version=1
nRows=11
nColumns=36
inDegrees=yes

Units are S.I. units (second, meters, Newtons, ...)
If the header above contains a line with 'inDegrees', this indicates whether rotational values are in degrees (yes) or radians (no).

endheader
time	pelvis_tilt	pelvis_list	pelvis_rotation	pelvis_tx	pelvis_ty	pelvis_tz	hip_flexion_r	hip_adduction_r	hip_rotation_r	knee_angle_r	knee_angle_r_beta	ankle_angle_r	subtalar_angle_r	mtp_angle_r	hip_flexion_l	hip_adduction_l	hip_rotation_l	knee_angle_l	knee_angle_l_beta	ankle_angle_l	subtalar_angle_l	mtp_angle_l	lumbar_extension	lumbar_bending	lumbar_rotation	arm_flex_r	arm_add_r	arm_rot_r	elbow_flex_r	pro_sup_r	arm_flex_l	arm_add_l	arm_rot_l	elbow_flex_l	pro_sup_l
      1.19000000	     -7.61158409	      1.72108099	      9.42879400	     -0.45905890	      1.01130339	     -0.59791340	     31.40197392	     -7.83861274	     -6.22904701	     21.50185078	      0.37527809	    -13.39059912	     -8.92942058	     -7.32941079	     32.56692565	     -2.30302893	     -6.24619948	     25.28283349	      0.44126869	    -10.84547507	     10.36611623	     -7.32941079	    -19.13467545	      0.67644287	     -3.96593276	    -60.34417303	    -32.20917025	    -45.64578634	    135.19275572	    109.68386417	    -49.78888863	    -46.35338282	    -24.17976035	    139.92722289	    102.68279496
      1.20000000	     -7.04912094	      1.48296566	      9.43834302	     -0.44876495	      0.98937361	     -0.59835220	     31.25322984	     -7.75562228	     -6.26620767	     21.79223308	      0.38034622	    -13.32259438	     -7.99888240	     -7.36290140	     33.11799401	     -2.73897108	     -6.73341595	     26.08003036	      0.45518240	    -10.70268608	     10.38168032	     -7.36290140	    -19.80764259	      0.88945553	     -4.30821641	    -57.77142625	    -33.09481059	    -43.36728278	    133.90504637	    110.70998624	    -49.76151596	    -44.17645056	    -23.30505512	    139.90826436	    105.95754631
      1.21000000	     -6.51192627	      1.29444281	      9.42175514	     -0.43914777	      0.96629124	     -0.59871892	     31.50213532	     -7.72856526	     -6.11520170	     22.81592221	      0.39821296	    -13.06975408	     -7.48275293	     -7.36809855	     33.88740009	     -3.03123645	     -6.67980672	     27.43238982	      0.47878552	    -10.62848748	     10.07395884	     -7.36809855	    -20.59984077	      1.20052932	     -3.89611320	    -55.36670973	    -32.84581748	    -42.14636605	    133.13196146	    109.64409729	    -48.05622716	    -42.78729742	    -21.72412615	    139.70867146	    105.21528120
      1.22000000	     -5.89950709	      0.98209678	      9.31471073	     -0.42960293	      0.94248010	     -0.59908286	     31.78590747	     -7.65175517	     -6.29898248	     23.78144648	      0.41506454	    -13.29050672	     -5.92054116	     -7.37535736	     34.85966310	     -3.60097140	     -6.84171415	     29.45251015	      0.51404328	    -10.81547457	     10.74150018	     -7.37535736	    -21.36150517	      1.55923817	     -3.52050372	    -52.25949217	    -33.53546129	    -39.83484732	    131.52764047	    108.73400207	    -45.85545577	    -41.71885213	    -18.85315677	    139.16463737	    104.75901903
      1.23000000	     -5.32743693	      0.83272930	      9.16966745	     -0.42043769	      0.91740488	     -0.59936959	     32.25198857	     -7.68657765	     -5.85095653	     24.80340724	      0.43290112	    -13.47588349	     -4.84408173	     -7.38192364	     36.01008760	     -3.93463599	     -6.69560570	     31.63818480	      0.55219049	    -11.46506022	     11.65794789	     -7.38192364	    -22.21081687	      1.75931536	     -3.09354248	    -48.64257819	    -34.03195324	    -37.92917740	    130.01278075	    107.82618057	    -43.08065457	    -40.76851583	    -16.54239230	    138.39896490	    104.22495536
      1.24000000	     -4.88147277	      0.76013399	      8.93001586	     -0.41149137	      0.89116755	     -0.59936384	     32.81712793	     -7.48094954	     -4.93311657	     26.33638083	      0.45965656	    -10.32760471	     -5.40440683	     -7.40475264	     37.40289414	     -4.15408871	     -6.36280714	     34.46264745	      0.60148667	     -9.97560686	     12.42528581	     -7.40475264	    -22.92022088	      1.78287915	     -2.69032058	    -44.39529188	    -34.77139147	    -35.88180832	    128.00232158	    110.34002972	    -39.95437890	    -39.97785031	    -14.79193247	    136.84890942	    107.97485839
      1.25000000	     -4.68845136	      0.57898209	      8.50193946	     -0.40361348	      0.86397002	     -0.59895607	     34.35863573	     -6.96928639	     -4.76295066	     30.38541496	      0.53032554	     -1.67537801	     -7.17002268	     -7.42324156	     39.23245219	     -4.45669559	     -5.84811091	     39.00306455	      0.68073189	     -3.32592120	     11.11706821	     -7.42324156	    -23.46993170	      1.83133949	     -1.88136878	    -39.89524629	    -35.49826287	    -33.76026234	    126.10802999	    109.61424590	    -35.98200450	    -39.61867923	    -12.24412412	    135.39611885	    107.76029804
      1.26000000	     -4.97778142	      0.26143557	      7.74368767	     -0.39783897	      0.83645281	     -0.59844298	     38.40105566	     -6.52460944	     -5.15139881	     38.51013748	      0.67212869	      8.18263059	     -8.48663423	     -7.43553412	     41.98171793	     -5.02127012	     -5.39203516	     45.60044035	      0.79587782	      7.38239599	      9.53814173	     -7.43553412	    -23.73695976	      1.89367314	     -0.77219128	    -34.71516257	    -36.53241146	    -31.33653915	    124.08248751	    107.21550995	    -31.26431381	    -39.11553414	     -9.34718538	    133.75002206	    105.51741882
      1.27000000	     -5.89617239	     -0.00923228	      6.72351088	     -0.39467381	      0.80989597	     -0.59830134	     45.16638767	     -6.07507222	     -3.82526401	     49.30163079	      0.86047578	     12.97877486	     -9.68155883	     -7.44957815	     46.18897335	     -5.41773361	     -4.46943904	     53.25340673	      0.92944729	     15.24023610	      6.98954445	     -7.44957815	    -23.66550301	      1.88153096	      0.65551958	    -28.83261895	    -37.75650875	    -28.95640456	    121.24312130	    109.18639737	    -25.32809530	    -38.34713238	     -6.25062743	    130.90265393	    106.66281253
      1.28000000	     -6.97920817	     -0.31238687	      5.51265159	     -0.39315565	      0.78626751	     -0.59798308	     52.41810558	     -4.88711361	     -0.94189414	     59.13764271	      1.03214658	     12.52295573	    -11.22006074	     -7.45065729	     51.36661115	     -5.78266550	     -2.83788985	     60.94588778	      1.06370641	     17.92600327	      4.43972348	     -7.45065729	    -23.73501312	      1.83884475	      2.24735154	    -22.02487077	    -39.04187672	    -25.72550574	    117.83932317	    108.95415358	    -18.64347115	    -37.09816572	     -2.97984440	    127.43339468	    106.48195874
      1.29000000	     -7.56320107	     -0.53497235	      4.16017844	     -0.39187263	      0.76653702	     -0.59707142	     57.75885845	     -3.45164359	      1.24495568	     66.26865975	      1.15660630	     11.53754220	    -11.69918486	     -7.45171914	     55.98011603	     -6.31515791	     -1.18497554	     67.88519995	      1.18482025	     18.00724678	      2.96631676	     -7.45171914	    -24.61446328	      1.62542985	      4.01310589	    -14.69467486	    -40.06842205	    -22.03812372	    113.89017831	    108.67968650	    -11.49094185	    -35.74992256	      0.46227176	    123.43562392	    106.26063625
